<svg width="12" height="13" viewBox="0 0 12 13" fill="none" xmlns="http://www.w3.org/2000/svg">
<path d="M9.18748 4.6251V9.5001C9.18748 9.54983 9.16773 9.59752 9.13256 9.63269C9.0974 9.66785 9.04971 9.6876 8.99998 9.6876H4.12498C4.07525 9.6876 4.02756 9.66785 3.9924 9.63269C3.95724 9.59752 3.93748 9.54983 3.93748 9.5001C3.93748 9.45038 3.95724 9.40268 3.9924 9.36752C4.02756 9.33236 4.07525 9.3126 4.12498 9.3126H8.54717L2.86733 3.63276C2.83214 3.59758 2.81238 3.54986 2.81238 3.5001C2.81238 3.45035 2.83214 3.40263 2.86733 3.36745C2.90251 3.33227 2.95023 3.3125 2.99998 3.3125C3.04974 3.3125 3.09746 3.33227 3.13264 3.36745L8.81248 9.04729V4.6251C8.81248 4.57538 8.83224 4.52768 8.8674 4.49252C8.90256 4.45736 8.95025 4.4376 8.99998 4.4376C9.04971 4.4376 9.0974 4.45736 9.13256 4.49252C9.16773 4.52768 9.18748 4.57538 9.18748 4.6251Z" fill="white"/>
</svg>
