<svg width="24" height="24" viewBox="0 0 24 24" fill="none" xmlns="http://www.w3.org/2000/svg">
<path opacity="0.2" d="M10.5 5.25V18.75L3.75 12L10.5 5.25Z" fill="white"/>
<path d="M20.25 11.2501H11.25V5.2501C11.2501 5.10168 11.2062 4.95656 11.1238 4.83312C11.0414 4.70967 10.9242 4.61345 10.7871 4.55664C10.65 4.49982 10.4991 4.48497 10.3535 4.51396C10.2079 4.54294 10.0742 4.61447 9.96935 4.71948L3.21935 11.4695C3.14962 11.5391 3.0943 11.6218 3.05656 11.7129C3.01882 11.8039 2.99939 11.9015 2.99939 12.0001C2.99939 12.0987 3.01882 12.1963 3.05656 12.2873C3.0943 12.3784 3.14962 12.4611 3.21935 12.5307L9.96935 19.2807C10.0742 19.3857 10.2079 19.4573 10.3535 19.4863C10.4991 19.5152 10.65 19.5004 10.7871 19.4436C10.9242 19.3868 11.0414 19.2905 11.1238 19.1671C11.2062 19.0436 11.2501 18.8985 11.25 18.7501V12.7501H20.25C20.4489 12.7501 20.6397 12.6711 20.7803 12.5304C20.921 12.3898 21 12.199 21 12.0001C21 11.8012 20.921 11.6104 20.7803 11.4698C20.6397 11.3291 20.4489 11.2501 20.25 11.2501ZM9.74998 16.9398L4.81029 12.0001L9.74998 7.06041V16.9398Z" fill="white"/>
</svg>
