<svg width="20" height="20" viewBox="0 0 20 20" fill="none" xmlns="http://www.w3.org/2000/svg">
<path d="M9.77898 13.9711L3.52898 7.72108C3.49994 7.69205 3.47691 7.65758 3.4612 7.61965C3.44549 7.58171 3.4374 7.54105 3.4374 7.49999C3.4374 7.45893 3.44549 7.41827 3.4612 7.38034C3.47691 7.3424 3.49994 7.30793 3.52898 7.2789C3.55801 7.24986 3.59248 7.22683 3.63042 7.21112C3.66835 7.1954 3.70901 7.18732 3.75007 7.18732C3.79113 7.18732 3.83179 7.1954 3.86973 7.21112C3.90766 7.22683 3.94213 7.24986 3.97117 7.2789L10.0001 13.3078L16.029 7.2789C16.0876 7.22026 16.1671 7.18732 16.2501 7.18732C16.333 7.18732 16.4125 7.22026 16.4712 7.2789C16.5298 7.33753 16.5627 7.41706 16.5627 7.49999C16.5627 7.58292 16.5298 7.66245 16.4712 7.72108L10.2212 13.9711C10.1921 14.0001 10.1577 14.0232 10.1197 14.0389C10.0818 14.0546 10.0411 14.0627 10.0001 14.0627C9.959 14.0627 9.91834 14.0546 9.8804 14.0389C9.84246 14.0232 9.808 14.0001 9.77898 13.9711Z" fill="white"/>
</svg>
