<svg width="476" height="195" viewBox="0 0 476 195" fill="none" xmlns="http://www.w3.org/2000/svg">
<g clip-path="url(#clip0_118_939)" filter="url(#filter0_d_118_939)">
<path d="M284.822 69.5C289.084 76.8058 286.313 86.9029 278.856 97.2154C286.313 107.312 289.084 117.41 284.822 124.715C281.413 130.516 273.956 133.522 264.368 133.522C262.45 133.522 260.32 133.309 258.188 133.094C253.075 144.696 245.62 152 237.522 152C229.211 152 221.754 144.694 216.64 133.094C214.511 133.309 212.379 133.525 210.461 133.525C200.875 133.525 193.415 130.516 190.006 124.5C185.745 117.41 188.515 107.312 195.972 97C188.518 86.9029 185.745 76.8035 190.006 69.5C193.415 63.6998 200.875 60.6908 210.461 60.6908C212.379 60.6908 214.511 60.9062 216.643 61.1217C221.754 49.5167 229.209 42 237.522 42C245.618 42 253.075 49.519 258.188 61.1217C260.32 60.9062 262.45 60.6908 264.37 60.6908C273.956 60.6908 281.413 63.6998 284.822 69.5ZM264.368 64.1283C262.663 64.1283 261.172 64.3438 259.468 64.3438C261.51 70.0456 262.939 75.9523 263.729 81.9621C268.843 85.8281 273.104 90.125 276.727 94.4219C282.904 85.6127 285.25 77.2344 282.052 71.4342C279.284 66.7065 273.102 64.1283 264.368 64.1283ZM264.368 86.9029C264.581 90.125 264.795 93.5625 264.795 97C264.795 100.653 264.581 104.09 264.368 107.312C268.034 104.222 271.453 100.846 274.595 97.2154C271.513 93.4631 268.089 90.0105 264.368 86.9029ZM261.386 97C261.386 92.4877 261.172 87.9754 260.534 83.6785C257.125 81.1004 253.502 78.5223 249.454 76.1619C245.541 74.0959 241.562 72.1607 237.522 70.3594C233.393 72.1165 229.341 74.0517 225.377 76.1596C221.57 78.4911 217.873 81.0001 214.297 83.6785C213.659 87.9754 213.445 92.4877 213.445 97C213.445 101.728 213.659 106.238 214.297 110.535C217.873 113.214 221.57 115.724 225.377 118.056C229.341 120.163 233.393 122.097 237.522 123.854C241.356 122.135 245.404 120.203 249.454 117.84C253.5 115.691 257.125 113.113 260.534 110.535C261.17 106.238 261.386 101.728 261.386 97ZM259.681 78.9531C258.907 74.1946 257.694 69.5192 256.059 64.9877C251.584 65.6317 246.684 66.9219 241.995 68.6406C244.979 69.9308 248.177 71.4342 251.159 73.3683C254.109 75.0544 256.955 76.9195 259.681 78.9531ZM237.522 45.4375C230.704 45.4375 224.522 51.884 220.263 61.5502C225.59 62.625 231.556 64.1283 237.522 66.7065C243.272 64.1283 249.24 62.625 254.568 61.5502C250.306 51.8817 244.127 45.4375 237.522 45.4375ZM218.772 64.7746C217.164 69.3873 215.952 74.131 215.15 78.9531C217.876 76.9187 220.722 75.0529 223.672 73.366C226.654 71.4342 229.852 69.9285 232.834 68.6406C228.255 66.9804 223.553 65.6892 218.772 64.7746ZM192.99 71.2188C189.581 77.019 191.925 85.6127 198.104 94.4219C201.727 90.125 205.988 85.8281 211.102 81.9598C211.892 75.9508 213.321 70.0449 215.363 64.3438C213.659 64.3438 212.165 64.1283 210.461 64.1283C201.727 64.1283 195.547 66.7065 192.99 71.2188ZM210.461 107.312C210.25 104.09 210.036 100.653 210.036 97C210.036 93.5625 210.25 90.125 210.461 86.6875C206.74 89.795 203.315 93.2477 200.234 97C203.315 100.752 206.74 104.205 210.461 107.312ZM210.461 130.087C212.165 130.087 213.659 129.872 215.363 129.872C213.321 124.17 211.892 118.263 211.102 112.253C205.988 108.387 201.727 104.09 198.102 99.7935C191.925 108.6 189.579 116.981 192.988 122.781C195.547 127.509 201.727 130.087 210.461 130.087ZM215.15 115.26C215.923 120.019 217.136 124.696 218.772 129.228C223.245 128.581 228.147 127.294 232.834 125.575C229.852 124.285 226.654 122.781 223.672 120.847C220.722 119.161 217.876 117.294 215.15 115.26ZM237.522 148.562C244.127 148.562 250.306 142.331 254.568 132.663C249.24 131.59 243.272 130.087 237.522 127.507C231.929 129.728 226.154 131.453 220.263 132.663C224.525 142.334 230.704 148.562 237.522 148.562ZM256.059 129.225C257.694 124.695 258.907 120.02 259.681 115.262C257.125 117.194 254.14 118.913 251.159 120.632C248.175 122.566 244.977 124.069 241.995 125.359C246.575 127.02 251.277 128.311 256.059 129.225ZM281.84 122.781C285.25 116.981 282.904 108.6 276.513 99.7935C272.89 104.09 268.629 108.387 263.515 112.253C262.725 118.263 261.297 124.17 259.254 129.872C260.959 129.872 262.663 130.085 264.154 130.085C272.89 130.085 279.07 127.509 281.84 122.781ZM237.522 86.6875C243.061 86.6875 247.75 91.4152 247.75 97C247.75 102.8 243.061 107.312 237.522 107.312C231.768 107.312 227.295 102.8 227.295 97C227.295 91.4129 231.768 86.6875 237.522 86.6875ZM237.522 103.875C241.143 103.875 244.34 100.866 244.34 97C244.34 93.3471 241.143 90.125 237.522 90.125C233.686 90.125 230.49 93.3471 230.49 97C230.49 100.868 233.686 103.875 237.522 103.875Z" fill="#67F990"/>
</g>
<circle cx="314" cy="64" r="2" fill="#67F990" fill-opacity="0.2"/>
<circle cx="228" cy="29" r="2" fill="#67F990" fill-opacity="0.2"/>
<circle cx="159" cy="82" r="1" transform="rotate(-90 159 82)" fill="#67F990" fill-opacity="0.1"/>
<circle cx="173" cy="133" r="2" fill="#67F990" fill-opacity="0.2"/>
<circle cx="263" cy="137" r="1" transform="rotate(-90 263 137)" fill="#67F990" fill-opacity="0.1"/>
<circle cx="255" cy="161" r="2" fill="#67F990" fill-opacity="0.2"/>
<circle cx="291" cy="55" r="1" transform="rotate(-90 291 55)" fill="#67F990" fill-opacity="0.1"/>
<circle cx="149" cy="44" r="2" fill="#67F990" fill-opacity="0.2"/>
<circle cx="362" cy="129" r="2" fill="#67F990" fill-opacity="0.2"/>
<circle cx="299.5" cy="118.5" r="3.5" fill="#67F990" fill-opacity="0.5"/>
<circle cx="161.5" cy="89.5" r="3.5" fill="#67F990" fill-opacity="0.5"/>
<circle cx="303.5" cy="36.5" r="3.5" fill="#67F990" fill-opacity="0.5"/>
<circle cx="118.5" cy="135.5" r="3.5" fill="#67F990" fill-opacity="0.5"/>
<defs>
<filter id="filter0_d_118_939" x="158" y="12" width="160" height="170" filterUnits="userSpaceOnUse" color-interpolation-filters="sRGB">
<feFlood flood-opacity="0" result="BackgroundImageFix"/>
<feColorMatrix in="SourceAlpha" type="matrix" values="0 0 0 0 0 0 0 0 0 0 0 0 0 0 0 0 0 0 127 0" result="hardAlpha"/>
<feOffset/>
<feGaussianBlur stdDeviation="15"/>
<feColorMatrix type="matrix" values="0 0 0 0 0.403922 0 0 0 0 0.976471 0 0 0 0 0.564706 0 0 0 0.3 0"/>
<feBlend mode="normal" in2="BackgroundImageFix" result="effect1_dropShadow_118_939"/>
<feBlend mode="normal" in="SourceGraphic" in2="effect1_dropShadow_118_939" result="shape"/>
</filter>
<clipPath id="clip0_118_939">
<rect width="100" height="110" fill="white" transform="translate(188 42)"/>
</clipPath>
</defs>
</svg>
