<svg width="72" height="72" viewBox="0 0 72 72" fill="none" xmlns="http://www.w3.org/2000/svg">
<path d="M62.37 19.5918L37.62 6.04117C37.1233 5.7694 36.5662 5.62695 36 5.62695C35.4338 5.62695 34.8767 5.7694 34.38 6.04117L9.63 19.5918C9.09905 19.8823 8.656 20.3102 8.34723 20.8308C8.03847 21.3513 7.87536 21.9453 7.875 22.5505V49.4493C7.87536 50.0545 8.03847 50.6485 8.34723 51.1691C8.656 51.6896 9.09905 52.1175 9.63 52.408L34.38 65.9587C34.8763 66.2317 35.4336 66.3749 36 66.3749C36.5664 66.3749 37.1237 66.2317 37.62 65.9587L62.37 52.408C62.9009 52.1175 63.344 51.6896 63.6528 51.1691C63.9615 50.6485 64.1246 50.0545 64.125 49.4493V22.5505C64.1246 21.9453 63.9615 21.3513 63.6528 20.8308C63.344 20.3102 62.9009 19.8823 62.37 19.5918ZM35.46 8.01555C35.6251 7.92343 35.811 7.87507 36 7.87507C36.189 7.87507 36.3749 7.92343 36.54 8.01555L60.9384 21.3749L50.2031 27.2502C50.1522 27.208 50.0976 27.1704 50.04 27.1377L25.29 13.5871L35.46 8.01555ZM36 35.0155L11.0616 21.3749L22.9387 14.8696L47.8772 28.5215L36 35.0155ZM10.71 50.428C10.5333 50.3314 10.3858 50.189 10.2829 50.0159C10.18 49.8427 10.1255 49.6451 10.125 49.4437V23.4252L34.875 36.9702V63.6637L10.71 50.428ZM61.29 50.428L37.125 63.6468V36.9702L48.375 30.8137V42.7499C48.375 43.0483 48.4935 43.3344 48.7045 43.5454C48.9155 43.7564 49.2016 43.8749 49.5 43.8749C49.7984 43.8749 50.0845 43.7564 50.2955 43.5454C50.5065 43.3344 50.625 43.0483 50.625 42.7499V29.5818L61.875 23.4252V49.4493C61.8745 49.6507 61.82 49.8483 61.7171 50.0215C61.6142 50.1946 61.4667 50.337 61.29 50.4337V50.428Z" fill="white"/>
</svg>
