<svg width="24" height="24" viewBox="0 0 24 24" fill="none" xmlns="http://www.w3.org/2000/svg">
<path opacity="0.2" d="M21.75 12L16.5 20.25H7.5L2.25 12L7.5 3.75H16.5L21.75 12Z" fill="white"/>
<path d="M8.13284 4.15316L3.13878 12L8.13284 19.8469C8.18578 19.9301 8.2218 20.0228 8.23886 20.1199C8.25592 20.217 8.25368 20.3165 8.23226 20.4127C8.21084 20.5089 8.17067 20.5999 8.11403 20.6806C8.0574 20.7613 7.98542 20.83 7.90221 20.8829C7.7822 20.9598 7.64257 21.0004 7.50003 21C7.37364 21.0002 7.24928 20.9683 7.13848 20.9075C7.02768 20.8467 6.93405 20.7589 6.86628 20.6522L1.61628 12.4022C1.5397 12.2819 1.49902 12.1422 1.49902 11.9996C1.49902 11.8569 1.5397 11.7173 1.61628 11.5969L6.86628 3.34691C6.97307 3.17908 7.14216 3.06055 7.33634 3.01738C7.53053 2.97422 7.73391 3.00997 7.90175 3.11676C8.06958 3.22355 8.18811 3.39264 8.23128 3.58683C8.27444 3.78101 8.23869 3.98439 8.1319 4.15223L8.13284 4.15316ZM22.3828 11.5979L17.1328 3.34785C17.08 3.26475 17.0112 3.19288 16.9306 3.13633C16.8499 3.07979 16.7589 3.03969 16.6628 3.01832C16.4686 2.97516 16.2652 3.0109 16.0974 3.1177C15.9295 3.22449 15.811 3.39357 15.7678 3.58776C15.7247 3.78195 15.7604 3.98533 15.8672 4.15316L20.8613 12L15.8672 19.8469C15.8143 19.9301 15.7783 20.0228 15.7612 20.1199C15.7441 20.217 15.7464 20.3165 15.7678 20.4127C15.7892 20.5089 15.8294 20.5999 15.886 20.6806C15.9427 20.7613 16.0146 20.83 16.0978 20.8829C16.2179 20.9598 16.3575 21.0004 16.5 21C16.6264 21.0002 16.7508 20.9683 16.8616 20.9075C16.9724 20.8467 17.066 20.7589 17.1338 20.6522L22.3838 12.4022C22.46 12.2819 22.5004 12.1424 22.5003 11.9999C22.5001 11.8575 22.4594 11.718 22.3828 11.5979Z" fill="white"/>
</svg>
