<svg width="32" height="33" viewBox="0 0 32 33" fill="none" xmlns="http://www.w3.org/2000/svg">
<path d="M27.5 8.49999C27.5001 7.82909 27.3073 7.17231 26.9447 6.60785C26.5821 6.0434 26.0648 5.59506 25.4546 5.31623C24.8444 5.0374 24.1669 4.93983 23.5028 5.03513C22.8387 5.13043 22.216 5.41459 21.7089 5.85377C21.2017 6.29295 20.8314 6.86864 20.6422 7.5123C20.4529 8.15595 20.4526 8.84043 20.6413 9.48424C20.8301 10.128 21.1999 10.704 21.7067 11.1436C22.2135 11.5832 22.836 11.8679 23.5 11.9637V13.5C23.5 14.163 23.2366 14.7989 22.7678 15.2678C22.2989 15.7366 21.663 16 21 16H11C10.337 16 9.70108 15.7366 9.23224 15.2678C8.7634 14.7989 8.50001 14.163 8.50001 13.5V11.9637C9.3758 11.8373 10.1712 11.3839 10.7262 10.6947C11.2811 10.0054 11.5544 9.13159 11.491 8.24899C11.4277 7.36639 11.0323 6.54056 10.3846 5.93768C9.7369 5.3348 8.88488 4.99964 8.00001 4.99964C7.11514 4.99964 6.26311 5.3348 5.61539 5.93768C4.96768 6.54056 4.57236 7.36639 4.50899 8.24899C4.44562 9.13159 4.71891 10.0054 5.27386 10.6947C5.8288 11.3839 6.62421 11.8373 7.50001 11.9637V13.5C7.50001 13.9596 7.59054 14.4147 7.76643 14.8394C7.94232 15.264 8.20013 15.6499 8.52513 15.9749C9.18151 16.6312 10.0717 17 11 17H15.5V21.0362C14.6242 21.1626 13.8288 21.6161 13.2739 22.3053C12.7189 22.9945 12.4456 23.8684 12.509 24.751C12.5724 25.6336 12.9677 26.4594 13.6154 27.0623C14.2631 27.6652 15.1151 28.0003 16 28.0003C16.8849 28.0003 17.7369 27.6652 18.3846 27.0623C19.0323 26.4594 19.4277 25.6336 19.491 24.751C19.5544 23.8684 19.2811 22.9945 18.7262 22.3053C18.1712 21.6161 17.3758 21.1626 16.5 21.0362V17H21C21.4596 17 21.9148 16.9095 22.3394 16.7336C22.764 16.5577 23.1499 16.2999 23.4749 15.9749C23.7999 15.6499 24.0577 15.264 24.2336 14.8394C24.4095 14.4147 24.5 13.9596 24.5 13.5V11.9637C25.3329 11.8435 26.0947 11.4272 26.6456 10.7911C27.1966 10.1549 27.4999 9.34156 27.5 8.49999ZM5.50001 8.49999C5.50001 8.00553 5.64663 7.52218 5.92133 7.11106C6.19604 6.69994 6.58648 6.37951 7.0433 6.19029C7.50011 6.00107 8.00278 5.95156 8.48773 6.04802C8.97268 6.14449 9.41814 6.38259 9.76777 6.73222C10.1174 7.08185 10.3555 7.52731 10.452 8.01226C10.5484 8.49721 10.4989 8.99988 10.3097 9.4567C10.1205 9.91351 9.80005 10.304 9.38893 10.5787C8.97781 10.8534 8.49446 11 8.00001 11C7.33696 11 6.70108 10.7366 6.23224 10.2678C5.7634 9.79891 5.50001 9.16303 5.50001 8.49999ZM18.5 24.5C18.5 24.9944 18.3534 25.4778 18.0787 25.8889C17.804 26.3 17.4135 26.6205 16.9567 26.8097C16.4999 26.9989 15.9972 27.0484 15.5123 26.952C15.0273 26.8555 14.5819 26.6174 14.2322 26.2678C13.8826 25.9181 13.6445 25.4727 13.548 24.9877C13.4516 24.5028 13.5011 24.0001 13.6903 23.5433C13.8795 23.0865 14.2 22.696 14.6111 22.4213C15.0222 22.1466 15.5056 22 16 22C16.663 22 17.2989 22.2634 17.7678 22.7322C18.2366 23.2011 18.5 23.8369 18.5 24.5ZM24 11C23.5056 11 23.0222 10.8534 22.6111 10.5787C22.2 10.304 21.8795 9.91351 21.6903 9.4567C21.5011 8.99988 21.4516 8.49721 21.548 8.01226C21.6445 7.52731 21.8826 7.08185 22.2322 6.73222C22.5819 6.38259 23.0273 6.14449 23.5123 6.04802C23.9972 5.95156 24.4999 6.00107 24.9567 6.19029C25.4135 6.37951 25.804 6.69994 26.0787 7.11106C26.3534 7.52218 26.5 8.00553 26.5 8.49999C26.5 9.16303 26.2366 9.79891 25.7678 10.2678C25.2989 10.7366 24.663 11 24 11Z" fill="white"/>
</svg>
