<svg width="32" height="32" viewBox="0 0 32 32" fill="none" xmlns="http://www.w3.org/2000/svg">
<path d="M26.4862 14.8863C26.4676 14.8061 26.4294 14.7317 26.3751 14.6698C26.3208 14.6078 26.2521 14.5603 26.175 14.5313L18.5737 11.6813L20.49 2.09758C20.5109 1.99112 20.4966 1.88075 20.4493 1.78312C20.4019 1.68549 20.3241 1.60591 20.2276 1.55637C20.1311 1.50684 20.0211 1.49005 19.9142 1.50853C19.8073 1.52701 19.7093 1.57976 19.635 1.65883L5.63497 16.6588C5.57829 16.7185 5.53723 16.7913 5.51542 16.8707C5.49362 16.95 5.49174 17.0336 5.50997 17.1138C5.5286 17.1941 5.56676 17.2684 5.62106 17.3304C5.67536 17.3923 5.74411 17.4399 5.82122 17.4688L13.4225 20.3188L11.51 29.9026C11.4891 30.009 11.5033 30.1194 11.5507 30.217C11.598 30.3147 11.6758 30.3942 11.7723 30.4438C11.8688 30.4933 11.9789 30.5101 12.0858 30.4916C12.1927 30.4731 12.2907 30.4204 12.365 30.3413L26.365 15.3413C26.421 15.2813 26.4614 15.2084 26.4825 15.129C26.5037 15.0496 26.5049 14.9663 26.4862 14.8863ZM12.835 28.3751L14.49 20.1001C14.5132 19.9837 14.4943 19.8628 14.4366 19.759C14.3789 19.6553 14.2862 19.5755 14.175 19.5338L6.87497 16.7951L19.165 3.62508L17.51 11.9001C17.4867 12.0165 17.5056 12.1374 17.5633 12.2411C17.621 12.3449 17.7138 12.4247 17.825 12.4663L25.125 15.2051L12.835 28.3751Z" fill="white"/>
</svg>
