<svg width="52" height="52" viewBox="0 0 52 52" fill="none" xmlns="http://www.w3.org/2000/svg">
<path d="M26 22.8125C24.6604 22.813 23.3658 23.2954 22.3527 24.1718C21.3395 25.0481 20.6756 26.2598 20.4822 27.5853C20.2888 28.9108 20.5789 30.2616 21.2994 31.3909C22.0199 32.5202 23.1227 33.3525 24.4062 33.7357V37.1562C24.4062 37.5789 24.5742 37.9843 24.873 38.2832C25.1719 38.5821 25.5773 38.75 26 38.75C26.4227 38.75 26.8281 38.5821 27.127 38.2832C27.4258 37.9843 27.5938 37.5789 27.5938 37.1562V33.7357C28.8773 33.3525 29.9801 32.5202 30.7006 31.3909C31.4211 30.2616 31.7112 28.9108 31.5178 27.5853C31.3244 26.2598 30.6605 25.0481 29.6473 24.1718C28.6342 23.2954 27.3396 22.813 26 22.8125ZM26 30.7812C25.5272 30.7812 25.065 30.641 24.6718 30.3784C24.2787 30.1157 23.9723 29.7423 23.7913 29.3055C23.6104 28.8686 23.5631 28.388 23.6553 27.9242C23.7476 27.4605 23.9752 27.0345 24.3096 26.7002C24.6439 26.3659 25.0699 26.1382 25.5336 26.0459C25.9973 25.9537 26.478 26.001 26.9149 26.182C27.3517 26.3629 27.725 26.6693 27.9877 27.0625C28.2504 27.4556 28.3906 27.9178 28.3906 28.3906C28.3906 29.0247 28.1388 29.6327 27.6904 30.0811C27.2421 30.5294 26.634 30.7812 26 30.7812ZM41.9375 16.4375H35.5625V11.6562C35.5625 9.12012 34.555 6.68786 32.7617 4.89454C30.9684 3.10122 28.5361 2.09375 26 2.09375C23.4639 2.09375 21.0316 3.10122 19.2383 4.89454C17.445 6.68786 16.4375 9.12012 16.4375 11.6562V16.4375H10.0625C9.21712 16.4375 8.40637 16.7733 7.8086 17.3711C7.21082 17.9689 6.875 18.7796 6.875 19.625V41.9375C6.875 42.7829 7.21082 43.5936 7.8086 44.1914C8.40637 44.7892 9.21712 45.125 10.0625 45.125H41.9375C42.7829 45.125 43.5936 44.7892 44.1914 44.1914C44.7892 43.5936 45.125 42.7829 45.125 41.9375V19.625C45.125 18.7796 44.7892 17.9689 44.1914 17.3711C43.5936 16.7733 42.7829 16.4375 41.9375 16.4375ZM19.625 11.6562C19.625 9.96549 20.2966 8.34399 21.4922 7.14844C22.6877 5.9529 24.3092 5.28125 26 5.28125C27.6908 5.28125 29.3123 5.9529 30.5078 7.14844C31.7033 8.34399 32.375 9.96549 32.375 11.6562V16.4375H19.625V11.6562ZM41.9375 41.9375H10.0625V19.625H41.9375V41.9375Z" fill="white"/>
</svg>
