<svg width="72" height="72" viewBox="0 0 72 72" fill="none" xmlns="http://www.w3.org/2000/svg">
<path d="M19.125 43.3125C17.2337 43.3125 15.3849 43.8733 13.8124 44.9241C12.2398 45.9748 11.0142 47.4683 10.2904 49.2156C9.56664 50.9629 9.37727 52.8856 9.74625 54.7406C10.1152 56.5955 11.026 58.2994 12.3633 59.6367C13.7006 60.974 15.4045 61.8848 17.2595 62.2538C19.1144 62.6227 21.0371 62.4334 22.7844 61.7096C24.5317 60.9858 26.0252 59.7602 27.0759 58.1876C28.1267 56.6151 28.6875 54.7663 28.6875 52.875C28.6875 50.3389 27.68 47.9066 25.8867 46.1133C24.0934 44.32 21.6611 43.3125 19.125 43.3125ZM19.125 59.0625C17.9012 59.0625 16.7049 58.6996 15.6874 58.0197C14.6699 57.3398 13.8768 56.3735 13.4085 55.2429C12.9402 54.1122 12.8176 52.8681 13.0564 51.6679C13.2951 50.4676 13.8844 49.3651 14.7498 48.4998C15.6151 47.6344 16.7176 47.0451 17.9179 46.8064C19.1181 46.5676 20.3622 46.6902 21.4929 47.1585C22.6235 47.6268 23.5898 48.4199 24.2697 49.4374C24.9496 50.4549 25.3125 51.6512 25.3125 52.875C25.3125 54.516 24.6606 56.0898 23.5002 57.2502C22.3398 58.4106 20.766 59.0625 19.125 59.0625ZM10.0575 30.3075L14.49 25.875L10.0575 21.4425C9.75942 21.1226 9.59715 20.6995 9.60486 20.2623C9.61257 19.8251 9.78968 19.408 10.0989 19.0989C10.408 18.7897 10.8252 18.6126 11.2623 18.6049C11.6995 18.5971 12.1226 18.7594 12.4425 19.0575L16.875 23.49L21.3075 19.0575C21.6274 18.7594 22.0505 18.5971 22.4877 18.6049C22.9249 18.6126 23.342 18.7897 23.6512 19.0989C23.9603 19.408 24.1374 19.8251 24.1451 20.2623C24.1529 20.6995 23.9906 21.1226 23.6925 21.4425L19.26 25.875L23.6925 30.3075C23.8583 30.462 23.9913 30.6483 24.0835 30.8553C24.1757 31.0623 24.2253 31.2857 24.2293 31.5123C24.2333 31.7389 24.1917 31.964 24.1068 32.1741C24.0219 32.3842 23.8956 32.5751 23.7353 32.7353C23.5751 32.8956 23.3842 33.0219 23.1741 33.1068C22.964 33.1916 22.7389 33.2333 22.5123 33.2293C22.2857 33.2253 22.0623 33.1757 21.8553 33.0835C21.6483 32.9913 21.462 32.8583 21.3075 32.6925L16.875 28.26L12.4425 32.6925C12.1226 32.9906 11.6995 33.1529 11.2623 33.1451C10.8252 33.1374 10.408 32.9603 10.0989 32.6511C9.78968 32.342 9.61257 31.9249 9.60486 31.4877C9.59715 31.0505 9.75942 30.6274 10.0575 30.3075ZM61.9425 57.3075C62.1083 57.462 62.2413 57.6483 62.3335 57.8553C62.4257 58.0623 62.4753 58.2857 62.4793 58.5123C62.4833 58.7389 62.4417 58.964 62.3568 59.1741C62.2719 59.3842 62.1456 59.5751 61.9853 59.7353C61.8251 59.8956 61.6342 60.0219 61.4241 60.1068C61.214 60.1917 60.9889 60.2333 60.7623 60.2293C60.5357 60.2253 60.3123 60.1757 60.1053 60.0835C59.8983 59.9913 59.712 59.8583 59.5575 59.6925L55.125 55.26L50.6925 59.6925C50.3726 59.9906 49.9495 60.1529 49.5123 60.1451C49.0752 60.1374 48.658 59.9603 48.3489 59.6511C48.0397 59.342 47.8626 58.9249 47.8549 58.4877C47.8471 58.0505 48.0094 57.6274 48.3075 57.3075L52.74 52.875L48.3075 48.4425C48.0094 48.1226 47.8471 47.6995 47.8549 47.2623C47.8626 46.8251 48.0397 46.408 48.3489 46.0989C48.658 45.7897 49.0752 45.6126 49.5123 45.6049C49.9495 45.5971 50.3726 45.7594 50.6925 46.0575L55.125 50.49L59.5575 46.0575C59.8774 45.7594 60.3005 45.5971 60.7377 45.6049C61.1749 45.6126 61.592 45.7897 61.9012 46.0989C62.2103 46.408 62.3874 46.8251 62.3951 47.2623C62.4029 47.6995 62.2406 48.1226 61.9425 48.4425L57.51 52.875L61.9425 57.3075ZM49.0922 31.5844C47.4047 37.6763 42.1875 42.9413 36.4106 44.3869C36.2763 44.4201 36.1384 44.4371 36 44.4375C35.5882 44.4376 35.1906 44.2871 34.882 44.0144C34.5735 43.7417 34.3753 43.3656 34.3248 42.9569C34.2744 42.5482 34.3751 42.1351 34.608 41.7955C34.8409 41.4559 35.1899 41.2132 35.5894 41.1131C40.1709 39.9684 44.4825 35.5809 45.8381 30.6816C46.7747 27.3066 46.7916 22.1766 41.5575 16.9425L39.9375 15.3225V22.5C39.9375 22.9476 39.7597 23.3768 39.4432 23.6932C39.1268 24.0097 38.6976 24.1875 38.25 24.1875C37.8025 24.1875 37.3732 24.0097 37.0568 23.6932C36.7403 23.3768 36.5625 22.9476 36.5625 22.5V11.25C36.5625 10.8024 36.7403 10.3732 37.0568 10.0568C37.3732 9.74029 37.8025 9.5625 38.25 9.5625H49.5C49.9476 9.5625 50.3768 9.74029 50.6932 10.0568C51.0097 10.3732 51.1875 10.8024 51.1875 11.25C51.1875 11.6976 51.0097 12.1268 50.6932 12.4432C50.3768 12.7597 49.9476 12.9375 49.5 12.9375H42.3225L43.9425 14.5575C48.9375 19.5384 50.7516 25.5938 49.0922 31.5844Z" fill="white"/>
</svg>
