<svg width="72" height="72" viewBox="0 0 72 72" fill="none" xmlns="http://www.w3.org/2000/svg">
<path d="M58.5 23.0625H26.4375V15.75C26.4375 13.2139 27.445 10.7816 29.2383 8.98829C31.0316 7.19497 33.4639 6.1875 36 6.1875C40.5844 6.1875 44.7188 9.47531 45.5962 13.8347C45.6911 14.2672 45.9522 14.6451 46.3232 14.8869C46.6941 15.1287 47.1453 15.2149 47.5793 15.1271C48.0133 15.0393 48.3954 14.7844 48.6432 14.4174C48.8909 14.0504 48.9845 13.6007 48.9038 13.1653C47.6859 7.16625 42.2606 2.8125 36 2.8125C32.5701 2.81697 29.282 4.18145 26.8567 6.60674C24.4315 9.03202 23.067 12.3201 23.0625 15.75V23.0625H13.5C12.4557 23.0625 11.4542 23.4773 10.7158 24.2158C9.97734 24.9542 9.5625 25.9557 9.5625 27V58.5C9.5625 59.5443 9.97734 60.5458 10.7158 61.2842C11.4542 62.0227 12.4557 62.4375 13.5 62.4375H58.5C59.5443 62.4375 60.5458 62.0227 61.2842 61.2842C62.0227 60.5458 62.4375 59.5443 62.4375 58.5V27C62.4375 25.9557 62.0227 24.9542 61.2842 24.2158C60.5458 23.4773 59.5443 23.0625 58.5 23.0625ZM59.0625 58.5C59.0625 58.6492 59.0032 58.7923 58.8977 58.8977C58.7923 59.0032 58.6492 59.0625 58.5 59.0625H13.5C13.3508 59.0625 13.2077 59.0032 13.1023 58.8977C12.9968 58.7923 12.9375 58.6492 12.9375 58.5V27C12.9375 26.8508 12.9968 26.7077 13.1023 26.6023C13.2077 26.4968 13.3508 26.4375 13.5 26.4375H58.5C58.6492 26.4375 58.7923 26.4968 58.8977 26.6023C59.0032 26.7077 59.0625 26.8508 59.0625 27V58.5Z" fill="white"/>
</svg>
