<svg width="10" height="6" viewBox="0 0 10 6" fill="none" xmlns="http://www.w3.org/2000/svg">
<path d="M9.09664 0.854689C9.06796 0.786439 9.01971 0.728207 8.95798 0.687333C8.89625 0.646458 8.8238 0.62477 8.74977 0.625002H1.24977C1.17573 0.62477 1.10329 0.646458 1.04156 0.687333C0.97983 0.728207 0.931581 0.786439 0.902893 0.854689C0.875876 0.923956 0.869022 0.999456 0.883124 1.07246C0.897227 1.14545 0.931708 1.21297 0.982581 1.26719L4.73258 5.01719C4.80426 5.0865 4.90006 5.12524 4.99977 5.12524C5.09947 5.12524 5.19528 5.0865 5.26696 5.01719L9.01696 1.26719C9.06783 1.21297 9.10231 1.14545 9.11641 1.07246C9.13051 0.999456 9.12366 0.923956 9.09664 0.854689Z" fill="white"/>
</svg>