<svg width="17" height="17" viewBox="0 0 17 17" fill="none" xmlns="http://www.w3.org/2000/svg">
<path d="M7.32312 13.1769L2.82312 8.67689C2.79988 8.65367 2.78144 8.6261 2.76886 8.59575C2.75628 8.5654 2.7498 8.53287 2.7498 8.50002C2.7498 8.46716 2.75628 8.43463 2.76886 8.40428C2.78144 8.37393 2.79988 8.34636 2.82312 8.32314L7.32312 3.82314C7.37004 3.77623 7.43366 3.74988 7.5 3.74988C7.56634 3.74988 7.62996 3.77623 7.67688 3.82314C7.72379 3.87005 7.75014 3.93368 7.75014 4.00002C7.75014 4.06636 7.72379 4.12998 7.67688 4.17689L3.60375 8.25002L14 8.25002C14.0663 8.25002 14.1299 8.27636 14.1768 8.32324C14.2237 8.37012 14.25 8.43371 14.25 8.50002C14.25 8.56632 14.2237 8.62991 14.1768 8.67679C14.1299 8.72368 14.0663 8.75002 14 8.75002L3.60375 8.75002L7.67687 12.8231C7.72379 12.8701 7.75014 12.9337 7.75014 13C7.75014 13.0664 7.72378 13.13 7.67687 13.1769C7.62996 13.2238 7.56634 13.2502 7.5 13.2502C7.43366 13.2502 7.37003 13.2238 7.32312 13.1769Z" fill="white"/>
</svg>
