<svg width="32" height="33" viewBox="0 0 32 33" fill="none" xmlns="http://www.w3.org/2000/svg">
<path d="M11 29.5H21" stroke="white" stroke-width="1.5" stroke-linecap="round" stroke-linejoin="round"/>
<path d="M16 25.5V18.5" stroke="white" stroke-width="1.5" stroke-linecap="round" stroke-linejoin="round"/>
<path d="M12 14.5L16 18.5L20 14.5" stroke="white" stroke-width="1.5" stroke-linecap="round" stroke-linejoin="round"/>
<path d="M9.8375 21.375C8.64699 20.4493 7.68277 19.2648 7.0179 17.9112C6.35303 16.5577 6.00494 15.0705 6 13.5625C5.975 8.1375 10.3375 3.625 15.7625 3.5C17.8621 3.45023 19.924 4.06276 21.6559 5.25071C23.3879 6.43866 24.7018 8.14174 25.4114 10.1184C26.121 12.0951 26.1902 14.245 25.6093 16.2632C25.0284 18.2814 23.8268 20.0655 22.175 21.3625C21.8101 21.6446 21.5145 22.0063 21.3109 22.4201C21.1072 22.8339 21.0009 23.2888 21 23.75V24.5C21 24.7652 20.8946 25.0196 20.7071 25.2071C20.5196 25.3946 20.2652 25.5 20 25.5H12C11.7348 25.5 11.4804 25.3946 11.2929 25.2071C11.1054 25.0196 11 24.7652 11 24.5V23.75C10.9969 23.2923 10.8908 22.8411 10.6895 22.43C10.4883 22.0188 10.1971 21.6583 9.8375 21.375V21.375Z" stroke="white" stroke-width="1.5" stroke-linecap="round" stroke-linejoin="round"/>
</svg>
