<svg width="20" height="20" viewBox="0 0 20 20" fill="none" xmlns="http://www.w3.org/2000/svg">
<path d="M17.3438 15C17.3438 15.1243 17.2944 15.2435 17.2065 15.3315C17.1185 15.4194 16.9993 15.4687 16.875 15.4687L3.125 15.4687C3.00068 15.4687 2.88145 15.4194 2.79354 15.3315C2.70564 15.2435 2.65625 15.1243 2.65625 15C2.65625 14.8757 2.70564 14.7565 2.79354 14.6685C2.88145 14.5806 3.00068 14.5312 3.125 14.5312L16.875 14.5312C16.9993 14.5312 17.1185 14.5806 17.2065 14.6685C17.2944 14.7565 17.3438 14.8757 17.3438 15ZM16.875 11.4062L6.875 11.4062C6.75068 11.4062 6.63145 11.4556 6.54354 11.5435C6.45564 11.6315 6.40625 11.7507 6.40625 11.875C6.40625 11.9993 6.45564 12.1185 6.54354 12.2065C6.63145 12.2944 6.75068 12.3437 6.875 12.3437L16.875 12.3437C16.9993 12.3437 17.1185 12.2944 17.2065 12.2065C17.2944 12.1185 17.3438 11.9993 17.3438 11.875C17.3438 11.7507 17.2944 11.6315 17.2065 11.5435C17.1185 11.4556 16.9993 11.4062 16.875 11.4062ZM3.125 9.21875L16.875 9.21875C16.9993 9.21875 17.1185 9.16936 17.2065 9.08146C17.2944 8.99355 17.3438 8.87432 17.3438 8.75C17.3438 8.62568 17.2944 8.50645 17.2065 8.41854C17.1185 8.33064 16.9993 8.28125 16.875 8.28125L3.125 8.28125C3.00068 8.28125 2.88145 8.33063 2.79354 8.41854C2.70564 8.50645 2.65625 8.62568 2.65625 8.75C2.65625 8.87432 2.70564 8.99355 2.79354 9.08146C2.88145 9.16936 3.00068 9.21875 3.125 9.21875ZM6.875 6.09375L16.875 6.09375C16.9993 6.09375 17.1185 6.04436 17.2065 5.95646C17.2944 5.86855 17.3438 5.74932 17.3438 5.625C17.3438 5.50068 17.2944 5.38145 17.2065 5.29354C17.1185 5.20564 16.9993 5.15625 16.875 5.15625L6.875 5.15625C6.75068 5.15625 6.63145 5.20564 6.54354 5.29354C6.45564 5.38145 6.40625 5.50068 6.40625 5.625C6.40625 5.74932 6.45564 5.86855 6.54354 5.95646C6.63145 6.04436 6.75068 6.09375 6.875 6.09375Z" fill="white"/>
</svg>
