<svg width="17" height="17" viewBox="0 0 17 17" fill="none" xmlns="http://www.w3.org/2000/svg">
<path d="M14 2.5H6C5.86739 2.5 5.74021 2.55268 5.64645 2.64645C5.55268 2.74021 5.5 2.86739 5.5 3V5.5H3C2.86739 5.5 2.74021 5.55268 2.64645 5.64645C2.55268 5.74021 2.5 5.86739 2.5 6V14C2.5 14.1326 2.55268 14.2598 2.64645 14.3536C2.74021 14.4473 2.86739 14.5 3 14.5H11C11.1326 14.5 11.2598 14.4473 11.3536 14.3536C11.4473 14.2598 11.5 14.1326 11.5 14V11.5H14C14.1326 11.5 14.2598 11.4473 14.3536 11.3536C14.4473 11.2598 14.5 11.1326 14.5 11V3C14.5 2.86739 14.4473 2.74021 14.3536 2.64645C14.2598 2.55268 14.1326 2.5 14 2.5ZM10.5 13.5H3.5V6.5H10.5V13.5ZM13.5 10.5H11.5V6C11.5 5.86739 11.4473 5.74021 11.3536 5.64645C11.2598 5.55268 11.1326 5.5 11 5.5H6.5V3.5H13.5V10.5Z" fill="white"/>
</svg>
