<svg width="24" height="24" viewBox="0 0 24 24" fill="none" xmlns="http://www.w3.org/2000/svg">
<path opacity="0.2" d="M20.6465 10.3913L12 16.5L3.35339 10.3913L5.01558 4.03128C5.03499 3.95499 5.07831 3.88693 5.13921 3.83705C5.20012 3.78718 5.27539 3.75813 5.354 3.75414C5.43262 3.75016 5.51044 3.77146 5.57607 3.81492C5.6417 3.85838 5.69169 3.92172 5.71871 3.99566L7.56089 9.00003H16.439L18.2812 3.99566C18.3075 3.92058 18.3574 3.85603 18.4234 3.81166C18.4894 3.76729 18.5681 3.74548 18.6475 3.74949C18.7269 3.7535 18.803 3.78312 18.8642 3.83391C18.9254 3.8847 18.9685 3.95394 18.9871 4.03128L20.6465 10.3913Z" fill="white"/>
<path d="M21.5765 10.9782L19.7109 3.84386C19.6515 3.61215 19.5195 3.40556 19.3342 3.25435C19.1488 3.10314 18.9199 3.01528 18.681 3.00365C18.4421 2.99201 18.2057 3.05721 18.0066 3.18969C17.8074 3.32217 17.656 3.51496 17.5743 3.7398L15.9168 8.25011H8.0831L6.4256 3.73793C6.34382 3.51312 6.19217 3.32042 5.99288 3.18809C5.7936 3.05576 5.55716 2.99075 5.31823 3.00259C5.0793 3.01444 4.85045 3.10252 4.66524 3.25392C4.48002 3.40532 4.34817 3.61207 4.28903 3.84386L2.42341 10.9782C2.14787 12.0282 2.19752 13.1371 2.56579 14.1582C2.93407 15.1793 3.60362 16.0646 4.48591 16.697L11.355 21.5495C11.5434 21.6825 11.7684 21.754 11.999 21.754C12.2297 21.754 12.4547 21.6825 12.6431 21.5495L19.5122 16.697C20.3948 16.0649 21.0647 15.1797 21.4333 14.1585C21.8019 13.1374 21.8519 12.0284 21.5765 10.9782ZM5.43747 5.39074L6.85591 9.25886C6.90888 9.40297 7.00479 9.52734 7.1307 9.61519C7.25661 9.70304 7.40644 9.75014 7.55997 9.75011H16.44C16.5935 9.75014 16.7433 9.70304 16.8692 9.61519C16.9952 9.52734 17.0911 9.40297 17.144 9.25886L18.5625 5.39074L19.7878 10.0782L12 15.5823L4.20935 10.0782L5.43747 5.39074ZM3.81372 11.6354L10.6997 16.5001L8.75716 17.8736L5.35216 15.4689C4.75797 15.0421 4.29768 14.4549 4.02521 13.776C3.75275 13.097 3.67939 12.3545 3.81372 11.6354ZM12 20.1667L10.0565 18.7932L12 17.4189L13.9434 18.7914L12 20.1667ZM18.6478 15.4689L15.2428 17.8745L13.3003 16.5001L20.1862 11.6345C20.3207 12.3537 20.2475 13.0965 19.975 13.7756C19.7025 14.4547 19.2421 15.042 18.6478 15.4689Z" fill="white"/>
</svg>
