<svg width="72" height="72" viewBox="0 0 72 72" fill="none" xmlns="http://www.w3.org/2000/svg">
<path d="M70.2786 26.0072L36.5286 8.00724C36.3659 7.92057 36.1843 7.87524 35.9999 7.87524C35.8155 7.87524 35.6339 7.92057 35.4711 8.00724L1.72114 26.0072C1.54115 26.1032 1.39062 26.2462 1.28565 26.4211C1.18069 26.596 1.12524 26.7961 1.12524 27.0001C1.12524 27.204 1.18069 27.4041 1.28565 27.579C1.39062 27.7539 1.54115 27.8969 1.72114 27.9929L10.1249 32.476V46.7691C10.1185 47.5976 10.419 48.3991 10.9686 49.0191C14.5265 52.9819 22.4999 59.6307 35.9999 59.6307C41.9061 59.6307 46.7436 58.3594 50.6249 56.596V67.5001C50.6249 67.7984 50.7434 68.0846 50.9544 68.2956C51.1654 68.5065 51.4515 68.6251 51.7499 68.6251C52.0483 68.6251 52.3344 68.5065 52.5454 68.2956C52.7564 68.0846 52.8749 67.7984 52.8749 67.5001V55.4569C55.9327 53.7772 58.6893 51.5995 61.0311 49.0135C61.5803 48.3932 61.8808 47.5919 61.8749 46.7635V32.476L70.2786 27.9929C70.4586 27.8969 70.6092 27.7539 70.7141 27.579C70.8191 27.4041 70.8745 27.204 70.8745 27.0001C70.8745 26.7961 70.8191 26.596 70.7141 26.4211C70.6092 26.2462 70.4586 26.1032 70.2786 26.0072ZM35.9999 57.3751C23.3915 57.3751 15.9608 51.1876 12.6561 47.5088C12.4741 47.3055 12.3739 47.042 12.3749 46.7691V33.6741L35.4711 45.9929C35.6339 46.0795 35.8155 46.1249 35.9999 46.1249C36.1843 46.1249 36.3659 46.0795 36.5286 45.9929L50.6249 38.4751V54.0929C46.8505 55.9688 42.0158 57.3751 35.9999 57.3751ZM59.6249 46.7691C59.6245 47.0426 59.5245 47.3065 59.3436 47.5116C57.4573 49.5964 55.2783 51.3964 52.8749 52.8554V37.2741L59.6249 33.6741V46.7691ZM52.709 34.8132C52.6042 34.6423 52.4556 34.5024 52.2786 34.4082L36.5286 26.0072C36.2659 25.873 35.961 25.8474 35.6795 25.9359C35.3981 26.0244 35.1626 26.2199 35.024 26.4803C34.8853 26.7407 34.8544 27.0452 34.9381 27.3281C35.0217 27.611 35.2132 27.8497 35.4711 27.9929L50.4843 36.0001L35.9999 43.726L4.64052 27.0001L35.9999 10.2741L67.3593 27.0001L52.709 34.8132Z" fill="white"/>
</svg>
