<svg width="20" height="20" viewBox="0 0 20 20" fill="none" xmlns="http://www.w3.org/2000/svg">
<path d="M12.5 3.125C11.2231 3.12598 9.97178 3.48214 8.88581 4.15364C7.79985 4.82514 6.9221 5.78551 6.35073 6.92734C5.67101 6.82821 4.97816 6.8702 4.31538 7.05069C3.65261 7.23117 3.03413 7.54629 2.49853 7.97638C1.96293 8.40647 1.5217 8.94231 1.20235 9.55047C0.883001 10.1586 0.69239 10.8261 0.642406 11.5112C0.592422 12.1963 0.684137 12.8843 0.91183 13.5324C1.13952 14.1804 1.49831 14.7747 1.96581 15.2779C2.43331 15.7812 2.9995 16.1828 3.62906 16.4575C4.25862 16.7323 4.93804 16.8744 5.62495 16.875H12.5C14.3233 16.875 16.072 16.1507 17.3613 14.8614C18.6506 13.572 19.375 11.8234 19.375 10C19.375 8.17664 18.6506 6.42795 17.3613 5.13864C16.072 3.84933 14.3233 3.125 12.5 3.125ZM12.5 15.625H5.62495C4.63039 15.625 3.67656 15.2299 2.9733 14.5267C2.27004 13.8234 1.87495 12.8696 1.87495 11.875C1.87495 10.8804 2.27004 9.92661 2.9733 9.22335C3.67656 8.52009 4.63039 8.125 5.62495 8.125C5.71089 8.125 5.79683 8.125 5.88198 8.13359C5.71106 8.74099 5.62457 9.36902 5.62495 10C5.62495 10.1658 5.6908 10.3247 5.80801 10.4419C5.92522 10.5592 6.08419 10.625 6.24995 10.625C6.41571 10.625 6.57468 10.5592 6.69189 10.4419C6.8091 10.3247 6.87495 10.1658 6.87495 10C6.87495 8.88748 7.20485 7.79994 7.82293 6.87492C8.44102 5.94989 9.31952 5.22892 10.3474 4.80318C11.3752 4.37743 12.5062 4.26604 13.5973 4.48308C14.6885 4.70012 15.6908 5.23585 16.4774 6.02252C17.2641 6.80919 17.7998 7.81147 18.0169 8.90262C18.2339 9.99376 18.1225 11.1248 17.6968 12.1526C17.271 13.1804 16.5501 14.0589 15.625 14.677C14.7 15.2951 13.6125 15.625 12.5 15.625ZM15.4421 8.30781C15.5002 8.36586 15.5463 8.43479 15.5778 8.51066C15.6093 8.58654 15.6254 8.66787 15.6254 8.75C15.6254 8.83213 15.6093 8.91346 15.5778 8.98934C15.5463 9.06521 15.5002 9.13414 15.4421 9.19219L11.6921 12.9422C11.6341 13.0003 11.5652 13.0464 11.4893 13.0779C11.4134 13.1093 11.3321 13.1255 11.25 13.1255C11.1678 13.1255 11.0865 13.1093 11.0106 13.0779C10.9347 13.0464 10.8658 13.0003 10.8078 12.9422L8.93276 11.0672C8.81549 10.9499 8.7496 10.7909 8.7496 10.625C8.7496 10.4591 8.81549 10.3001 8.93276 10.1828C9.05004 10.0655 9.2091 9.99965 9.37495 9.99965C9.5408 9.99965 9.69986 10.0655 9.81714 10.1828L11.25 11.6164L14.5578 8.30781C14.6158 8.2497 14.6847 8.2036 14.7606 8.17215C14.8365 8.1407 14.9178 8.12451 15 8.12451C15.0821 8.12451 15.1634 8.1407 15.2393 8.17215C15.3152 8.2036 15.3841 8.2497 15.4421 8.30781Z" fill="white"/>
</svg>
