<svg width="65" height="12" viewBox="0 0 65 12" fill="none" xmlns="http://www.w3.org/2000/svg">
<g clip-path="url(#clip0_1354_7318)">
<path d="M39.2227 2.23512V10.2398H41.4817V2.23512H39.2227ZM21.4497 2.22156V10.233H23.729V4.01243L25.5063 4.01921C26.0897 4.01921 26.4967 4.16167 26.7748 4.46015C27.1344 4.84003 27.2768 5.45734 27.2768 6.57663V10.233H29.4883V5.81008C29.4883 2.64892 27.4735 2.22156 25.5063 2.22156H21.4497ZM42.8655 2.23512V10.2398H46.5287C48.4824 10.2398 49.12 9.91416 49.8052 9.18832C50.2936 8.67955 50.6056 7.55347 50.6056 6.32564C50.6056 5.19956 50.3411 4.19559 49.873 3.57149C49.0454 2.4522 47.8379 2.23512 46.0335 2.23512H42.8655ZM45.1041 3.97173H46.0742C47.4852 3.97173 48.3942 4.6026 48.3942 6.24423C48.3942 7.88587 47.4852 8.52352 46.0742 8.52352H45.1041V3.97173ZM35.9666 2.23512L34.0808 8.57779L32.2763 2.23512H29.8342L32.412 10.2398H35.6681L38.273 2.23512H35.9666ZM51.6639 10.2398H53.9228V2.23512H51.6639V10.2398ZM57.9998 2.23512L54.8454 10.233H57.0704L57.5724 8.81522H61.3034L61.7782 10.2262H64.2L61.0185 2.23512H57.9998ZM59.465 3.6936L60.8353 7.43815H58.054L59.465 3.6936Z" fill="#9196A0"/>
<path d="M6.87179 3.56472V2.46578C6.98033 2.45899 7.08886 2.45221 7.1974 2.45221C10.2093 2.35724 12.1833 5.04355 12.1833 5.04355C12.1833 5.04355 10.0533 8.0012 7.76722 8.0012C7.46196 8.0012 7.16348 7.95371 6.87857 7.85874V4.52121C8.05214 4.66366 8.28956 5.17922 8.98827 6.35278L10.5553 5.03676C10.5553 5.03676 9.40886 3.53759 7.48231 3.53759C7.2788 3.5308 7.0753 3.54437 6.87179 3.56472ZM6.87179 -0.0712891V1.57034L7.1974 1.54999C11.3829 1.40754 14.1167 4.98249 14.1167 4.98249C14.1167 4.98249 10.9827 8.79488 7.71974 8.79488C7.43483 8.79488 7.1567 8.76774 6.87857 8.72026V9.7378C7.10921 9.76493 7.34664 9.78528 7.57728 9.78528C10.6163 9.78528 12.8142 8.23184 14.9443 6.40027C15.297 6.68518 16.7419 7.37032 17.0404 7.6688C15.0189 9.3647 10.3043 10.7282 7.63155 10.7282C7.37378 10.7282 7.12957 10.7146 6.88536 10.6875V12.1188H18.431V-0.0712891H6.87179ZM6.87179 7.85874V8.72704C4.06338 8.22505 3.28326 5.30132 3.28326 5.30132C3.28326 5.30132 4.6332 3.80893 6.87179 3.56472V4.51443H6.865C5.69144 4.37197 4.76887 5.47091 4.76887 5.47091C4.76887 5.47091 5.29121 7.32284 6.87179 7.85874ZM1.88584 5.17922C1.88584 5.17922 3.54782 2.72355 6.87857 2.46578V1.57034C3.18829 1.86882 0 4.98928 0 4.98928C0 4.98928 1.80444 10.2126 6.87179 10.6875V9.7378C3.15438 9.27651 1.88584 5.17922 1.88584 5.17922Z" fill="#9196A0"/>
</g>
<defs>
<clipPath id="clip0_1354_7318">
<rect width="64.2" height="12" fill="white"/>
</clipPath>
</defs>
</svg>
