<svg width="22" height="22" viewBox="0 0 22 22" fill="none" xmlns="http://www.w3.org/2000/svg">
<path fill-rule="evenodd" clip-rule="evenodd" d="M9.16992 2C13.1298 2 16.3398 5.21008 16.3398 9.16992C16.3398 10.8061 15.6432 12.4774 14.7206 13.684L19.5709 18.5312C19.9159 18.9019 19.9986 19.3463 19.7198 19.7198C19.4409 20.0933 18.7773 20.0933 18.3675 19.72L13.5161 14.8729C12.3103 15.7932 10.8039 16.3398 9.16992 16.3398C5.21008 16.3398 2 13.1298 2 9.16992C2 5.21008 5.21008 2 9.16992 2ZM9.16992 3.52539C5.93911 3.52539 3.48784 5.93699 3.48784 9.16992C3.48784 12.4029 5.68164 14.8729 9.16992 14.8729C12.6582 14.8729 14.9533 12.5125 14.9533 9.16992C14.9533 5.82729 12.4007 3.52539 9.16992 3.52539Z" fill="white"/>
</svg>
