<svg width="52" height="52" viewBox="0 0 52 52" fill="none" xmlns="http://www.w3.org/2000/svg">
<path d="M46.7186 27.7253C46.38 31.6618 44.9241 35.4197 42.5223 38.5569C40.1205 41.6941 36.8727 44.0801 33.1609 45.4342C29.4491 46.7882 25.4278 47.054 21.5701 46.2002C17.7124 45.3465 14.1788 43.4087 11.385 40.6149C8.59115 37.8211 6.65337 34.2875 5.79962 30.4298C4.94587 26.5721 5.21165 22.5508 6.5657 18.839C7.91975 15.1272 10.3057 11.8794 13.4429 9.47755C16.5802 7.07574 20.3381 5.6199 24.2746 5.28129C24.4839 5.26403 24.6945 5.28815 24.8945 5.35229C25.0945 5.41643 25.2799 5.51933 25.4401 5.65512C25.6003 5.7909 25.7321 5.95691 25.8282 6.14367C25.9242 6.33042 25.9826 6.53426 25.9998 6.74356C26.0171 6.95285 25.993 7.1635 25.9288 7.36347C25.8647 7.56344 25.7618 7.74882 25.626 7.90902C25.4902 8.06922 25.3242 8.20111 25.1375 8.29716C24.9507 8.39321 24.7469 8.45153 24.5376 8.46879C21.2058 8.75506 18.0251 9.98698 15.3697 12.0196C12.7144 14.0522 10.6948 16.801 9.54859 19.9424C8.40241 23.0839 8.17734 26.4874 8.89985 29.7525C9.62236 33.0175 11.2624 36.0083 13.627 38.3729C15.9916 40.7375 18.9823 42.3775 22.2474 43.1C25.5125 43.8225 28.9159 43.5975 32.0574 42.4513C35.1989 41.3051 37.9477 39.2855 39.9803 36.6301C42.0129 33.9748 43.2448 30.7941 43.5311 27.4623C43.5659 27.0396 43.7673 26.6481 44.0908 26.3739C44.4144 26.0996 44.8336 25.9652 45.2563 26C45.679 26.0349 46.0705 26.2363 46.3447 26.5598C46.619 26.8834 46.7534 27.3026 46.7186 27.7253ZM24.4061 14.8438V26C24.4061 26.4227 24.574 26.8281 24.8729 27.127C25.1718 27.4259 25.5771 27.5938 25.9998 27.5938H37.1561C37.5788 27.5938 37.9841 27.4259 38.283 27.127C38.5819 26.8281 38.7498 26.4227 38.7498 26C38.7498 25.5774 38.5819 25.172 38.283 24.8731C37.9841 24.5742 37.5788 24.4063 37.1561 24.4063H27.5936V14.8438C27.5936 14.4211 27.4257 14.0157 27.1268 13.7168C26.8279 13.418 26.4225 13.25 25.9998 13.25C25.5771 13.25 25.1718 13.418 24.8729 13.7168C24.574 14.0157 24.4061 14.4211 24.4061 14.8438ZM32.3748 10.0625C32.8476 10.0625 33.3098 9.92234 33.703 9.65965C34.0961 9.39697 34.4025 9.0236 34.5835 8.58677C34.7644 8.14994 34.8118 7.66927 34.7195 7.20553C34.6273 6.7418 34.3996 6.31583 34.0653 5.98149C33.7309 5.64716 33.3049 5.41947 32.8412 5.32723C32.3775 5.23499 31.8968 5.28233 31.46 5.46327C31.0231 5.64421 30.6498 5.95062 30.3871 6.34376C30.1244 6.73689 29.9842 7.1991 29.9842 7.67192C29.9842 8.30595 30.2361 8.91402 30.6844 9.36235C31.1327 9.81068 31.7408 10.0625 32.3748 10.0625ZM39.5467 14.8438C40.0195 14.8438 40.4817 14.7036 40.8749 14.4409C41.268 14.1782 41.5744 13.8049 41.7553 13.368C41.9363 12.9312 41.9836 12.4505 41.8914 11.9868C41.7991 11.523 41.5715 11.0971 41.2371 10.7627C40.9028 10.4284 40.4768 10.2007 40.0131 10.1085C39.5494 10.0162 39.0687 10.0636 38.6318 10.2445C38.195 10.4255 37.8217 10.7319 37.559 11.125C37.2963 11.5181 37.1561 11.9803 37.1561 12.4532C37.1561 13.0872 37.4079 13.6953 37.8563 14.1436C38.3046 14.5919 38.9127 14.8438 39.5467 14.8438ZM44.3279 22.0157C44.8008 22.0157 45.263 21.8755 45.6561 21.6128C46.0492 21.3501 46.3557 20.9767 46.5366 20.5399C46.7175 20.1031 46.7649 19.6224 46.6726 19.1587C46.5804 18.6949 46.3527 18.269 46.0184 17.9346C45.684 17.6003 45.2581 17.3726 44.7943 17.2804C44.3306 17.1881 43.8499 17.2355 43.4131 17.4164C42.9763 17.5973 42.6029 17.9037 42.3402 18.2969C42.0775 18.69 41.9373 19.1522 41.9373 19.625C41.9373 20.2591 42.1892 20.8671 42.6375 21.3155C43.0859 21.7638 43.6939 22.0157 44.3279 22.0157Z" fill="white"/>
</svg>
