<svg width="32" height="33" viewBox="0 0 32 33" fill="none" xmlns="http://www.w3.org/2000/svg">
<path d="M16 13.5V18.5" stroke="white" stroke-width="1.5" stroke-linecap="round" stroke-linejoin="round"/>
<path d="M14.275 5.49995L3.27501 24.5C3.09977 24.8035 3.00736 25.1477 3.00705 25.4982C3.00674 25.8487 3.09853 26.1931 3.27324 26.4969C3.44794 26.8007 3.69942 27.0533 4.00248 27.2294C4.30553 27.4054 4.64953 27.4987 5.00001 27.5H27C27.3505 27.4987 27.6945 27.4054 27.9975 27.2294C28.3006 27.0533 28.5521 26.8007 28.7268 26.4969C28.9015 26.1931 28.9933 25.8487 28.993 25.4982C28.9927 25.1477 28.9002 24.8035 28.725 24.5L17.725 5.49995C17.5511 5.19603 17.3 4.94346 16.997 4.76781C16.6941 4.59215 16.3502 4.49963 16 4.49963C15.6498 4.49963 15.3059 4.59215 15.003 4.76781C14.7001 4.94346 14.4489 5.19603 14.275 5.49995V5.49995Z" stroke="white" stroke-width="1.5" stroke-linecap="round" stroke-linejoin="round"/>
<path d="M16 24.25C16.6904 24.25 17.25 23.6904 17.25 23C17.25 22.3096 16.6904 21.75 16 21.75C15.3096 21.75 14.75 22.3096 14.75 23C14.75 23.6904 15.3096 24.25 16 24.25Z" fill="white"/>
</svg>
