<svg width="20" height="20" viewBox="0 0 20 20" fill="none" xmlns="http://www.w3.org/2000/svg">
<path d="M12.6734 9.73983L8.92344 7.23983C8.87636 7.20842 8.82165 7.19039 8.76512 7.18765C8.7086 7.18491 8.65239 7.19757 8.6025 7.22428C8.55262 7.25099 8.51091 7.29074 8.48185 7.3393C8.45279 7.38786 8.43746 7.4434 8.4375 7.49999V12.5C8.43743 12.5566 8.45273 12.6121 8.48177 12.6607C8.5108 12.7093 8.55247 12.749 8.60234 12.7758C8.65226 12.8025 8.7085 12.8152 8.76505 12.8124C8.82161 12.8097 8.87635 12.7916 8.92344 12.7601L12.6734 10.2601C12.7163 10.2316 12.7515 10.1929 12.7758 10.1476C12.8001 10.1022 12.8128 10.0515 12.8128 9.99999C12.8128 9.9485 12.8001 9.89781 12.7758 9.85242C12.7515 9.80703 12.7163 9.76836 12.6734 9.73983ZM9.0625 11.9164V8.08358L11.9367 9.99999L9.0625 11.9164ZM18.0047 5.51014C17.9436 5.27006 17.8263 5.04795 17.6625 4.86213C17.4987 4.6763 17.293 4.53209 17.0625 4.44139C14.4219 3.42108 10.1773 3.43749 10 3.43749C9.82266 3.43749 5.57812 3.42108 2.9375 4.44139C2.70707 4.53201 2.50147 4.67611 2.33765 4.86179C2.17384 5.04747 2.0565 5.26943 1.99531 5.50936C1.79688 6.27108 1.5625 7.66874 1.5625 9.99999C1.5625 12.3312 1.79688 13.7289 1.99531 14.4906C2.0565 14.7305 2.17384 14.9525 2.33765 15.1382C2.50147 15.3239 2.70707 15.468 2.9375 15.5586C5.57812 16.5789 9.82266 16.5625 10 16.5625H10.0555C10.5938 16.5625 14.5539 16.5289 17.0648 15.5586C17.2953 15.468 17.5009 15.3239 17.6647 15.1382C17.8285 14.9525 17.9458 14.7305 18.007 14.4906C18.2031 13.7281 18.4375 12.3312 18.4375 9.99999C18.4375 7.66874 18.2031 6.27108 18.0047 5.50936V5.51014ZM17.4 14.3383C17.3637 14.4823 17.2937 14.6156 17.1958 14.7272C17.0978 14.8389 16.9748 14.9257 16.8367 14.9805C14.3078 15.9523 10.0445 15.9375 10 15.9375C9.95547 15.9375 5.69453 15.9523 3.16563 14.9758C3.02758 14.921 2.90452 14.8342 2.80659 14.7226C2.70866 14.6109 2.63866 14.4776 2.60234 14.3336C2.41172 13.607 2.1875 12.2656 2.1875 9.99999C2.1875 7.73436 2.41172 6.39295 2.6 5.66639C2.63631 5.52239 2.70632 5.38907 2.80425 5.27742C2.90218 5.16576 3.02524 5.07898 3.16328 5.0242C5.69219 4.04764 9.95547 4.06249 10 4.06249C10.0445 4.06249 14.3055 4.04686 16.8344 5.0242C16.9724 5.07898 17.0955 5.16576 17.1934 5.27742C17.2913 5.38907 17.3613 5.52239 17.3977 5.66639C17.5883 6.39295 17.8125 7.73436 17.8125 9.99999C17.8125 12.2656 17.5883 13.607 17.4 14.3336V14.3383Z" fill="white"/>
</svg>
